{
  "asset": {
    "version": "2.0",
    "generator": "nevermine-model-rebuilder"
  },
  "scenes": [
    {
      "nodes": [
        0,
        1,
        2,
        3,
        4,
        5,
        6,
        7,
        8,
        9,
        10
      ]
    }
  ],
  "nodes": [
    {
      "name": "head",
      "translation": [
        0,
        0,
        0
      ],
      "rotation": [
        0,
        0,
        0,
        1
      ],
      "mesh": 0
    },
    {
      "name": "body",
      "translation": [
        0,
        0,
        0
      ],
      "rotation": [
        0,
        0,
        0,
        1
      ],
      "mesh": 1
    },
    {
      "name": "rightarm",
      "translation": [
        -0.3125,
        0.125,
        0
      ],
      "rotation": [
        0.2588190568876374,
        0,
        0,
        0.9659258231312557
      ],
      "mesh": 2
    },
    {
      "name": "leftarm",
      "translation": [
        0.3125,
        0.125,
        0
      ],
      "rotation": [
        0.2588190568876374,
        0,
        0,
        0.9659258231312557
      ],
      "mesh": 3
    },
    {
      "name": "body2",
      "translation": [
        0,
        0,
        0
      ],
      "rotation": [
        0,
        0,
        0,
        1
      ],
      "mesh": 4
    },
    {
      "name": "body3",
      "translation": [
        0,
        0,
        0
      ],
      "rotation": [
        0,
        0,
        0,
        1
      ],
      "mesh": 5
    },
    {
      "name": "body4",
      "translation": [
        0,
        0,
        0
      ],
      "rotation": [
        0,
        0,
        0,
        1
      ],
      "mesh": 6
    },
    {
      "name": "body5",
      "translation": [
        0,
        0,
        0
      ],
      "rotation": [
        0,
        0,
        0,
        1
      ],
      "mesh": 7
    },
    {
      "name": "body6",
      "translation": [
        0,
        0,
        0
      ],
      "rotation": [
        0,
        0,
        0,
        1
      ],
      "mesh": 8
    },
    {
      "name": "body7",
      "translation": [
        0,
        0,
        0
      ],
      "rotation": [
        0,
        0,
        0,
        1
      ],
      "mesh": 9
    },
    {
      "name": "body8",
      "translation": [
        0,
        0,
        0
      ],
      "rotation": [
        0,
        0,
        0,
        1
      ],
      "mesh": 10
    }
  ],
  "meshes": [
    {
      "primitives": [
        {
          "attributes": {
            "POSITION": 1,
            "NORMAL": 2,
            "TEXCOORD_0": 3
          },
          "indices": 0,
          "material": 0
        }
      ]
    },
    {
      "primitives": [
        {
          "attributes": {
            "POSITION": 5,
            "NORMAL": 6,
            "TEXCOORD_0": 7
          },
          "indices": 4,
          "material": 0
        }
      ]
    },
    {
      "primitives": [
        {
          "attributes": {
            "POSITION": 9,
            "NORMAL": 10,
            "TEXCOORD_0": 11
          },
          "indices": 8,
          "material": 0
        }
      ]
    },
    {
      "primitives": [
        {
          "attributes": {
            "POSITION": 13,
            "NORMAL": 14,
            "TEXCOORD_0": 15
          },
          "indices": 12,
          "material": 0
        }
      ]
    },
    {
      "primitives": [
        {
          "attributes": {
            "POSITION": 17,
            "NORMAL": 18,
            "TEXCOORD_0": 19
          },
          "indices": 16,
          "material": 0
        }
      ]
    },
    {
      "primitives": [
        {
          "attributes": {
            "POSITION": 21,
            "NORMAL": 22,
            "TEXCOORD_0": 23
          },
          "indices": 20,
          "material": 0
        }
      ]
    },
    {
      "primitives": [
        {
          "attributes": {
            "POSITION": 25,
            "NORMAL": 26,
            "TEXCOORD_0": 27
          },
          "indices": 24,
          "material": 0
        }
      ]
    },
    {
      "primitives": [
        {
          "attributes": {
            "POSITION": 29,
            "NORMAL": 30,
            "TEXCOORD_0": 31
          },
          "indices": 28,
          "material": 0
        }
      ]
    },
    {
      "primitives": [
        {
          "attributes": {
            "POSITION": 33,
            "NORMAL": 34,
            "TEXCOORD_0": 35
          },
          "indices": 32,
          "material": 0
        }
      ]
    },
    {
      "primitives": [
        {
          "attributes": {
            "POSITION": 37,
            "NORMAL": 38,
            "TEXCOORD_0": 39
          },
          "indices": 36,
          "material": 0
        }
      ]
    },
    {
      "primitives": [
        {
          "attributes": {
            "POSITION": 41,
            "NORMAL": 42,
            "TEXCOORD_0": 43
          },
          "indices": 40,
          "material": 0
        }
      ]
    }
  ],
  "materials": [
    {
      "doubleSided": true,
      "alphaMode": "MASK",
      "alphaCutoff": 0.1,
      "pbrMetallicRoughness": {
        "metallicFactor": 0,
        "roughnessFactor": 1,
        "baseColorTexture": {
          "index": 0
        }
      }
    }
  ],
  "textures": [
    {
      "sampler": 0,
      "source": 0
    }
  ],
  "samplers": [
    {
      "magFilter": 9728,
      "minFilter": 9728,
      "wrapS": 33071,
      "wrapT": 33071
    }
  ],
  "images": [
    {
      "uri": "baumba.png",
      "name": "baumba-texture"
    }
  ],
  "accessors": [
    {
      "bufferView": 0,
      "componentType": 5123,
      "count": 36,
      "type": "SCALAR"
    },
    {
      "bufferView": 1,
      "componentType": 5126,
      "count": 24,
      "type": "VEC3",
      "min": [
        -0.25,
        -0.5,
        -0.1875
      ],
      "max": [
        0.25,
        0,
        0.25
      ]
    },
    {
      "bufferView": 2,
      "componentType": 5126,
      "count": 24,
      "type": "VEC3",
      "min": [
        -1,
        -1,
        -1
      ],
      "max": [
        1,
        1,
        1
      ]
    },
    {
      "bufferView": 3,
      "componentType": 5126,
      "count": 24,
      "type": "VEC2"
    },
    {
      "bufferView": 4,
      "componentType": 5123,
      "count": 36,
      "type": "SCALAR"
    },
    {
      "bufferView": 5,
      "componentType": 5126,
      "count": 24,
      "type": "VEC3",
      "min": [
        -0.25,
        1.25,
        -0.4375
      ],
      "max": [
        0.25,
        1.5,
        -0.125
      ]
    },
    {
      "bufferView": 6,
      "componentType": 5126,
      "count": 24,
      "type": "VEC3",
      "min": [
        -1,
        -1,
        -1
      ],
      "max": [
        1,
        1,
        1
      ]
    },
    {
      "bufferView": 7,
      "componentType": 5126,
      "count": 24,
      "type": "VEC2"
    },
    {
      "bufferView": 8,
      "componentType": 5123,
      "count": 36,
      "type": "SCALAR"
    },
    {
      "bufferView": 9,
      "componentType": 5126,
      "count": 24,
      "type": "VEC3",
      "min": [
        -0.1875,
        -0.125,
        -0.125
      ],
      "max": [
        0.0625,
        0.375,
        0.125
      ]
    },
    {
      "bufferView": 10,
      "componentType": 5126,
      "count": 24,
      "type": "VEC3",
      "min": [
        -1,
        -1,
        -1
      ],
      "max": [
        1,
        1,
        1
      ]
    },
    {
      "bufferView": 11,
      "componentType": 5126,
      "count": 24,
      "type": "VEC2"
    },
    {
      "bufferView": 12,
      "componentType": 5123,
      "count": 36,
      "type": "SCALAR"
    },
    {
      "bufferView": 13,
      "componentType": 5126,
      "count": 24,
      "type": "VEC3",
      "min": [
        -0.0625,
        -0.125,
        -0.125
      ],
      "max": [
        0.1875,
        0.375,
        0.125
      ]
    },
    {
      "bufferView": 14,
      "componentType": 5126,
      "count": 24,
      "type": "VEC3",
      "min": [
        -1,
        -1,
        -1
      ],
      "max": [
        1,
        1,
        1
      ]
    },
    {
      "bufferView": 15,
      "componentType": 5126,
      "count": 24,
      "type": "VEC2"
    },
    {
      "bufferView": 16,
      "componentType": 5123,
      "count": 36,
      "type": "SCALAR"
    },
    {
      "bufferView": 17,
      "componentType": 5126,
      "count": 24,
      "type": "VEC3",
      "min": [
        -0.25,
        0.6875,
        -0.25
      ],
      "max": [
        0.25,
        1.0625,
        -0.125
      ]
    },
    {
      "bufferView": 18,
      "componentType": 5126,
      "count": 24,
      "type": "VEC3",
      "min": [
        -1,
        -1,
        -1
      ],
      "max": [
        1,
        1,
        1
      ]
    },
    {
      "bufferView": 19,
      "componentType": 5126,
      "count": 24,
      "type": "VEC2"
    },
    {
      "bufferView": 20,
      "componentType": 5123,
      "count": 36,
      "type": "SCALAR"
    },
    {
      "bufferView": 21,
      "componentType": 5126,
      "count": 24,
      "type": "VEC3",
      "min": [
        -0.25,
        0,
        -0.125
      ],
      "max": [
        0.25,
        1.5,
        0.0625
      ]
    },
    {
      "bufferView": 22,
      "componentType": 5126,
      "count": 24,
      "type": "VEC3",
      "min": [
        -1,
        -1,
        -1
      ],
      "max": [
        1,
        1,
        1
      ]
    },
    {
      "bufferView": 23,
      "componentType": 5126,
      "count": 24,
      "type": "VEC2"
    },
    {
      "bufferView": 24,
      "componentType": 5123,
      "count": 36,
      "type": "SCALAR"
    },
    {
      "bufferView": 25,
      "componentType": 5126,
      "count": 24,
      "type": "VEC3",
      "min": [
        -0.25,
        1.0625,
        0.0625
      ],
      "max": [
        0.25,
        1.25,
        0.1875
      ]
    },
    {
      "bufferView": 26,
      "componentType": 5126,
      "count": 24,
      "type": "VEC3",
      "min": [
        -1,
        -1,
        -1
      ],
      "max": [
        1,
        1,
        1
      ]
    },
    {
      "bufferView": 27,
      "componentType": 5126,
      "count": 24,
      "type": "VEC2"
    },
    {
      "bufferView": 28,
      "componentType": 5123,
      "count": 36,
      "type": "SCALAR"
    },
    {
      "bufferView": 29,
      "componentType": 5126,
      "count": 24,
      "type": "VEC3",
      "min": [
        -0.25,
        0.3125,
        -0.25
      ],
      "max": [
        0.25,
        0.6875,
        -0.125
      ]
    },
    {
      "bufferView": 30,
      "componentType": 5126,
      "count": 24,
      "type": "VEC3",
      "min": [
        -1,
        -1,
        -1
      ],
      "max": [
        1,
        1,
        1
      ]
    },
    {
      "bufferView": 31,
      "componentType": 5126,
      "count": 24,
      "type": "VEC2"
    },
    {
      "bufferView": 32,
      "componentType": 5123,
      "count": 36,
      "type": "SCALAR"
    },
    {
      "bufferView": 33,
      "componentType": 5126,
      "count": 24,
      "type": "VEC3",
      "min": [
        -0.25,
        0,
        0.0625
      ],
      "max": [
        0.25,
        0.375,
        0.1875
      ]
    },
    {
      "bufferView": 34,
      "componentType": 5126,
      "count": 24,
      "type": "VEC3",
      "min": [
        -1,
        -1,
        -1
      ],
      "max": [
        1,
        1,
        1
      ]
    },
    {
      "bufferView": 35,
      "componentType": 5126,
      "count": 24,
      "type": "VEC2"
    },
    {
      "bufferView": 36,
      "componentType": 5123,
      "count": 36,
      "type": "SCALAR"
    },
    {
      "bufferView": 37,
      "componentType": 5126,
      "count": 24,
      "type": "VEC3",
      "min": [
        -0.25,
        0.375,
        0.0625
      ],
      "max": [
        0.25,
        0.5625,
        0.1875
      ]
    },
    {
      "bufferView": 38,
      "componentType": 5126,
      "count": 24,
      "type": "VEC3",
      "min": [
        -1,
        -1,
        -1
      ],
      "max": [
        1,
        1,
        1
      ]
    },
    {
      "bufferView": 39,
      "componentType": 5126,
      "count": 24,
      "type": "VEC2"
    },
    {
      "bufferView": 40,
      "componentType": 5123,
      "count": 36,
      "type": "SCALAR"
    },
    {
      "bufferView": 41,
      "componentType": 5126,
      "count": 24,
      "type": "VEC3",
      "min": [
        -0.25,
        1.25,
        0.0625
      ],
      "max": [
        0.25,
        1.5,
        0.1875
      ]
    },
    {
      "bufferView": 42,
      "componentType": 5126,
      "count": 24,
      "type": "VEC3",
      "min": [
        -1,
        -1,
        -1
      ],
      "max": [
        1,
        1,
        1
      ]
    },
    {
      "bufferView": 43,
      "componentType": 5126,
      "count": 24,
      "type": "VEC2"
    }
  ],
  "bufferViews": [
    {
      "buffer": 0,
      "byteOffset": 0,
      "byteLength": 72
    },
    {
      "buffer": 0,
      "byteOffset": 72,
      "byteLength": 288
    },
    {
      "buffer": 0,
      "byteOffset": 360,
      "byteLength": 288
    },
    {
      "buffer": 0,
      "byteOffset": 648,
      "byteLength": 192
    },
    {
      "buffer": 0,
      "byteOffset": 840,
      "byteLength": 72
    },
    {
      "buffer": 0,
      "byteOffset": 912,
      "byteLength": 288
    },
    {
      "buffer": 0,
      "byteOffset": 1200,
      "byteLength": 288
    },
    {
      "buffer": 0,
      "byteOffset": 1488,
      "byteLength": 192
    },
    {
      "buffer": 0,
      "byteOffset": 1680,
      "byteLength": 72
    },
    {
      "buffer": 0,
      "byteOffset": 1752,
      "byteLength": 288
    },
    {
      "buffer": 0,
      "byteOffset": 2040,
      "byteLength": 288
    },
    {
      "buffer": 0,
      "byteOffset": 2328,
      "byteLength": 192
    },
    {
      "buffer": 0,
      "byteOffset": 2520,
      "byteLength": 72
    },
    {
      "buffer": 0,
      "byteOffset": 2592,
      "byteLength": 288
    },
    {
      "buffer": 0,
      "byteOffset": 2880,
      "byteLength": 288
    },
    {
      "buffer": 0,
      "byteOffset": 3168,
      "byteLength": 192
    },
    {
      "buffer": 0,
      "byteOffset": 3360,
      "byteLength": 72
    },
    {
      "buffer": 0,
      "byteOffset": 3432,
      "byteLength": 288
    },
    {
      "buffer": 0,
      "byteOffset": 3720,
      "byteLength": 288
    },
    {
      "buffer": 0,
      "byteOffset": 4008,
      "byteLength": 192
    },
    {
      "buffer": 0,
      "byteOffset": 4200,
      "byteLength": 72
    },
    {
      "buffer": 0,
      "byteOffset": 4272,
      "byteLength": 288
    },
    {
      "buffer": 0,
      "byteOffset": 4560,
      "byteLength": 288
    },
    {
      "buffer": 0,
      "byteOffset": 4848,
      "byteLength": 192
    },
    {
      "buffer": 0,
      "byteOffset": 5040,
      "byteLength": 72
    },
    {
      "buffer": 0,
      "byteOffset": 5112,
      "byteLength": 288
    },
    {
      "buffer": 0,
      "byteOffset": 5400,
      "byteLength": 288
    },
    {
      "buffer": 0,
      "byteOffset": 5688,
      "byteLength": 192
    },
    {
      "buffer": 0,
      "byteOffset": 5880,
      "byteLength": 72
    },
    {
      "buffer": 0,
      "byteOffset": 5952,
      "byteLength": 288
    },
    {
      "buffer": 0,
      "byteOffset": 6240,
      "byteLength": 288
    },
    {
      "buffer": 0,
      "byteOffset": 6528,
      "byteLength": 192
    },
    {
      "buffer": 0,
      "byteOffset": 6720,
      "byteLength": 72
    },
    {
      "buffer": 0,
      "byteOffset": 6792,
      "byteLength": 288
    },
    {
      "buffer": 0,
      "byteOffset": 7080,
      "byteLength": 288
    },
    {
      "buffer": 0,
      "byteOffset": 7368,
      "byteLength": 192
    },
    {
      "buffer": 0,
      "byteOffset": 7560,
      "byteLength": 72
    },
    {
      "buffer": 0,
      "byteOffset": 7632,
      "byteLength": 288
    },
    {
      "buffer": 0,
      "byteOffset": 7920,
      "byteLength": 288
    },
    {
      "buffer": 0,
      "byteOffset": 8208,
      "byteLength": 192
    },
    {
      "buffer": 0,
      "byteOffset": 8400,
      "byteLength": 72
    },
    {
      "buffer": 0,
      "byteOffset": 8472,
      "byteLength": 288
    },
    {
      "buffer": 0,
      "byteOffset": 8760,
      "byteLength": 288
    },
    {
      "buffer": 0,
      "byteOffset": 9048,
      "byteLength": 192
    }
  ],
  "buffers": [
    {
      "uri": "baumba.bin",
      "byteLength": 9240
    }
  ]
}