{
  "asset": {
    "version": "2.0",
    "generator": "convertMobModels.js"
  },
  "scenes": [
    {
      "nodes": [
        0,
        1,
        2,
        3,
        4,
        5
      ]
    }
  ],
  "nodes": [
    {
      "name": "tnt_front",
      "translation": [
        0,
        0,
        0
      ],
      "rotation": [
        0,
        0,
        0,
        1
      ],
      "mesh": 0
    },
    {
      "name": "tnt_back",
      "translation": [
        0,
        0,
        0
      ],
      "rotation": [
        0,
        0,
        0,
        1
      ],
      "mesh": 1
    },
    {
      "name": "tnt_right",
      "translation": [
        0,
        0,
        0
      ],
      "rotation": [
        0,
        0,
        0,
        1
      ],
      "mesh": 2
    },
    {
      "name": "tnt_left",
      "translation": [
        0,
        0,
        0
      ],
      "rotation": [
        0,
        0,
        0,
        1
      ],
      "mesh": 3
    },
    {
      "name": "tnt_top",
      "translation": [
        0,
        0,
        0
      ],
      "rotation": [
        0,
        0,
        0,
        1
      ],
      "mesh": 4
    },
    {
      "name": "tnt_bottom",
      "translation": [
        0,
        0,
        0
      ],
      "rotation": [
        0,
        0,
        0,
        1
      ],
      "mesh": 5
    }
  ],
  "meshes": [
    {
      "name": "tnt_front",
      "primitives": [
        {
          "attributes": {
            "POSITION": 0,
            "NORMAL": 1,
            "TEXCOORD_0": 2
          },
          "indices": 3,
          "material": 0
        }
      ]
    },
    {
      "name": "tnt_back",
      "primitives": [
        {
          "attributes": {
            "POSITION": 4,
            "NORMAL": 5,
            "TEXCOORD_0": 6
          },
          "indices": 7,
          "material": 0
        }
      ]
    },
    {
      "name": "tnt_right",
      "primitives": [
        {
          "attributes": {
            "POSITION": 8,
            "NORMAL": 9,
            "TEXCOORD_0": 10
          },
          "indices": 11,
          "material": 0
        }
      ]
    },
    {
      "name": "tnt_left",
      "primitives": [
        {
          "attributes": {
            "POSITION": 12,
            "NORMAL": 13,
            "TEXCOORD_0": 14
          },
          "indices": 15,
          "material": 0
        }
      ]
    },
    {
      "name": "tnt_top",
      "primitives": [
        {
          "attributes": {
            "POSITION": 16,
            "NORMAL": 17,
            "TEXCOORD_0": 18
          },
          "indices": 19,
          "material": 1
        }
      ]
    },
    {
      "name": "tnt_bottom",
      "primitives": [
        {
          "attributes": {
            "POSITION": 20,
            "NORMAL": 21,
            "TEXCOORD_0": 22
          },
          "indices": 23,
          "material": 2
        }
      ]
    }
  ],
  "materials": [
    {
      "name": "fake-tnt-side-material",
      "pbrMetallicRoughness": {
        "baseColorTexture": {
          "index": 0
        },
        "metallicFactor": 0,
        "roughnessFactor": 1
      }
    },
    {
      "name": "fake-tnt-top-material",
      "pbrMetallicRoughness": {
        "baseColorTexture": {
          "index": 1
        },
        "metallicFactor": 0,
        "roughnessFactor": 1
      }
    },
    {
      "name": "fake-tnt-bottom-material",
      "pbrMetallicRoughness": {
        "baseColorTexture": {
          "index": 2
        },
        "metallicFactor": 0,
        "roughnessFactor": 1
      }
    }
  ],
  "textures": [
    {
      "source": 0,
      "sampler": 0
    },
    {
      "source": 1,
      "sampler": 0
    },
    {
      "source": 2,
      "sampler": 0
    }
  ],
  "images": [
    {
      "uri": "tnt_side.png"
    },
    {
      "uri": "tnt_top.png"
    },
    {
      "uri": "tnt_bottom.png"
    }
  ],
  "samplers": [
    {
      "magFilter": 9728,
      "minFilter": 9728
    }
  ],
  "accessors": [
    {
      "bufferView": 0,
      "componentType": 5126,
      "count": 4,
      "type": "VEC3",
      "min": [
        0,
        0,
        1
      ],
      "max": [
        1,
        1,
        1
      ]
    },
    {
      "bufferView": 1,
      "componentType": 5126,
      "count": 4,
      "type": "VEC3",
      "min": [
        0,
        0,
        1
      ],
      "max": [
        0,
        0,
        1
      ]
    },
    {
      "bufferView": 2,
      "componentType": 5126,
      "count": 4,
      "type": "VEC2"
    },
    {
      "bufferView": 3,
      "componentType": 5123,
      "count": 6,
      "type": "SCALAR"
    },
    {
      "bufferView": 4,
      "componentType": 5126,
      "count": 4,
      "type": "VEC3",
      "min": [
        0,
        0,
        0
      ],
      "max": [
        1,
        1,
        0
      ]
    },
    {
      "bufferView": 5,
      "componentType": 5126,
      "count": 4,
      "type": "VEC3",
      "min": [
        0,
        0,
        -1
      ],
      "max": [
        0,
        0,
        -1
      ]
    },
    {
      "bufferView": 6,
      "componentType": 5126,
      "count": 4,
      "type": "VEC2"
    },
    {
      "bufferView": 7,
      "componentType": 5123,
      "count": 6,
      "type": "SCALAR"
    },
    {
      "bufferView": 8,
      "componentType": 5126,
      "count": 4,
      "type": "VEC3",
      "min": [
        1,
        0,
        0
      ],
      "max": [
        1,
        1,
        1
      ]
    },
    {
      "bufferView": 9,
      "componentType": 5126,
      "count": 4,
      "type": "VEC3",
      "min": [
        1,
        0,
        0
      ],
      "max": [
        1,
        0,
        0
      ]
    },
    {
      "bufferView": 10,
      "componentType": 5126,
      "count": 4,
      "type": "VEC2"
    },
    {
      "bufferView": 11,
      "componentType": 5123,
      "count": 6,
      "type": "SCALAR"
    },
    {
      "bufferView": 12,
      "componentType": 5126,
      "count": 4,
      "type": "VEC3",
      "min": [
        0,
        0,
        0
      ],
      "max": [
        0,
        1,
        1
      ]
    },
    {
      "bufferView": 13,
      "componentType": 5126,
      "count": 4,
      "type": "VEC3",
      "min": [
        -1,
        0,
        0
      ],
      "max": [
        -1,
        0,
        0
      ]
    },
    {
      "bufferView": 14,
      "componentType": 5126,
      "count": 4,
      "type": "VEC2"
    },
    {
      "bufferView": 15,
      "componentType": 5123,
      "count": 6,
      "type": "SCALAR"
    },
    {
      "bufferView": 16,
      "componentType": 5126,
      "count": 4,
      "type": "VEC3",
      "min": [
        0,
        1,
        0
      ],
      "max": [
        1,
        1,
        1
      ]
    },
    {
      "bufferView": 17,
      "componentType": 5126,
      "count": 4,
      "type": "VEC3",
      "min": [
        0,
        1,
        0
      ],
      "max": [
        0,
        1,
        0
      ]
    },
    {
      "bufferView": 18,
      "componentType": 5126,
      "count": 4,
      "type": "VEC2"
    },
    {
      "bufferView": 19,
      "componentType": 5123,
      "count": 6,
      "type": "SCALAR"
    },
    {
      "bufferView": 20,
      "componentType": 5126,
      "count": 4,
      "type": "VEC3",
      "min": [
        0,
        0,
        0
      ],
      "max": [
        1,
        0,
        1
      ]
    },
    {
      "bufferView": 21,
      "componentType": 5126,
      "count": 4,
      "type": "VEC3",
      "min": [
        0,
        -1,
        0
      ],
      "max": [
        0,
        -1,
        0
      ]
    },
    {
      "bufferView": 22,
      "componentType": 5126,
      "count": 4,
      "type": "VEC2"
    },
    {
      "bufferView": 23,
      "componentType": 5123,
      "count": 6,
      "type": "SCALAR"
    }
  ],
  "bufferViews": [
    {
      "buffer": 0,
      "byteOffset": 0,
      "byteLength": 48,
      "target": 34962
    },
    {
      "buffer": 0,
      "byteOffset": 48,
      "byteLength": 48,
      "target": 34962
    },
    {
      "buffer": 0,
      "byteOffset": 96,
      "byteLength": 32,
      "target": 34962
    },
    {
      "buffer": 0,
      "byteOffset": 128,
      "byteLength": 12,
      "target": 34963
    },
    {
      "buffer": 0,
      "byteOffset": 140,
      "byteLength": 48,
      "target": 34962
    },
    {
      "buffer": 0,
      "byteOffset": 188,
      "byteLength": 48,
      "target": 34962
    },
    {
      "buffer": 0,
      "byteOffset": 236,
      "byteLength": 32,
      "target": 34962
    },
    {
      "buffer": 0,
      "byteOffset": 268,
      "byteLength": 12,
      "target": 34963
    },
    {
      "buffer": 0,
      "byteOffset": 280,
      "byteLength": 48,
      "target": 34962
    },
    {
      "buffer": 0,
      "byteOffset": 328,
      "byteLength": 48,
      "target": 34962
    },
    {
      "buffer": 0,
      "byteOffset": 376,
      "byteLength": 32,
      "target": 34962
    },
    {
      "buffer": 0,
      "byteOffset": 408,
      "byteLength": 12,
      "target": 34963
    },
    {
      "buffer": 0,
      "byteOffset": 420,
      "byteLength": 48,
      "target": 34962
    },
    {
      "buffer": 0,
      "byteOffset": 468,
      "byteLength": 48,
      "target": 34962
    },
    {
      "buffer": 0,
      "byteOffset": 516,
      "byteLength": 32,
      "target": 34962
    },
    {
      "buffer": 0,
      "byteOffset": 548,
      "byteLength": 12,
      "target": 34963
    },
    {
      "buffer": 0,
      "byteOffset": 560,
      "byteLength": 48,
      "target": 34962
    },
    {
      "buffer": 0,
      "byteOffset": 608,
      "byteLength": 48,
      "target": 34962
    },
    {
      "buffer": 0,
      "byteOffset": 656,
      "byteLength": 32,
      "target": 34962
    },
    {
      "buffer": 0,
      "byteOffset": 688,
      "byteLength": 12,
      "target": 34963
    },
    {
      "buffer": 0,
      "byteOffset": 700,
      "byteLength": 48,
      "target": 34962
    },
    {
      "buffer": 0,
      "byteOffset": 748,
      "byteLength": 48,
      "target": 34962
    },
    {
      "buffer": 0,
      "byteOffset": 796,
      "byteLength": 32,
      "target": 34962
    },
    {
      "buffer": 0,
      "byteOffset": 828,
      "byteLength": 12,
      "target": 34963
    }
  ],
  "buffers": [
    {
      "uri": "fake-tnt.bin",
      "byteLength": 840
    }
  ]
}