{
  "asset": {
    "version": "2.0",
    "generator": "nevermine-model-rebuilder"
  },
  "scenes": [
    {
      "nodes": [
        0,
        1,
        2
      ]
    }
  ],
  "nodes": [
    {
      "name": "body",
      "translation": [
        -0.0625,
        0.5,
        -0.0625
      ],
      "rotation": [
        0,
        0,
        0,
        1
      ],
      "mesh": 0
    },
    {
      "name": "rightleg",
      "translation": [
        -0.1875,
        1.25,
        0
      ],
      "rotation": [
        0,
        0,
        0,
        1
      ],
      "mesh": 1
    },
    {
      "name": "leftleg",
      "translation": [
        0.1875,
        1.25,
        0
      ],
      "rotation": [
        0,
        0,
        0,
        1
      ],
      "mesh": 2
    }
  ],
  "meshes": [
    {
      "primitives": [
        {
          "attributes": {
            "POSITION": 1,
            "NORMAL": 2,
            "TEXCOORD_0": 3
          },
          "indices": 0,
          "material": 0
        }
      ]
    },
    {
      "primitives": [
        {
          "attributes": {
            "POSITION": 5,
            "NORMAL": 6,
            "TEXCOORD_0": 7
          },
          "indices": 4,
          "material": 0
        }
      ]
    },
    {
      "primitives": [
        {
          "attributes": {
            "POSITION": 9,
            "NORMAL": 10,
            "TEXCOORD_0": 11
          },
          "indices": 8,
          "material": 0
        }
      ]
    }
  ],
  "materials": [
    {
      "doubleSided": true,
      "alphaMode": "MASK",
      "alphaCutoff": 0.1,
      "pbrMetallicRoughness": {
        "metallicFactor": 0,
        "roughnessFactor": 1,
        "baseColorTexture": {
          "index": 0
        }
      }
    }
  ],
  "textures": [
    {
      "sampler": 0,
      "source": 0
    }
  ],
  "samplers": [
    {
      "magFilter": 9728,
      "minFilter": 9728,
      "wrapS": 33071,
      "wrapT": 33071
    }
  ],
  "images": [
    {
      "uri": "littlebam.png",
      "name": "littlebam-texture"
    }
  ],
  "accessors": [
    {
      "bufferView": 0,
      "componentType": 5123,
      "count": 36,
      "type": "SCALAR"
    },
    {
      "bufferView": 1,
      "componentType": 5126,
      "count": 24,
      "type": "VEC3",
      "min": [
        -0.25,
        0,
        -0.125
      ],
      "max": [
        0.375,
        0.75,
        0.3125
      ]
    },
    {
      "bufferView": 2,
      "componentType": 5126,
      "count": 24,
      "type": "VEC3",
      "min": [
        -1,
        -1,
        -1
      ],
      "max": [
        1,
        1,
        1
      ]
    },
    {
      "bufferView": 3,
      "componentType": 5126,
      "count": 24,
      "type": "VEC2"
    },
    {
      "bufferView": 4,
      "componentType": 5123,
      "count": 36,
      "type": "SCALAR"
    },
    {
      "bufferView": 5,
      "componentType": 5126,
      "count": 24,
      "type": "VEC3",
      "min": [
        -0.125,
        0,
        -0.4375
      ],
      "max": [
        0.125,
        0.25,
        0.1875
      ]
    },
    {
      "bufferView": 6,
      "componentType": 5126,
      "count": 24,
      "type": "VEC3",
      "min": [
        -1,
        -1,
        -1
      ],
      "max": [
        1,
        1,
        1
      ]
    },
    {
      "bufferView": 7,
      "componentType": 5126,
      "count": 24,
      "type": "VEC2"
    },
    {
      "bufferView": 8,
      "componentType": 5123,
      "count": 36,
      "type": "SCALAR"
    },
    {
      "bufferView": 9,
      "componentType": 5126,
      "count": 24,
      "type": "VEC3",
      "min": [
        -0.125,
        0,
        -0.4375
      ],
      "max": [
        0.125,
        0.25,
        0.1875
      ]
    },
    {
      "bufferView": 10,
      "componentType": 5126,
      "count": 24,
      "type": "VEC3",
      "min": [
        -1,
        -1,
        -1
      ],
      "max": [
        1,
        1,
        1
      ]
    },
    {
      "bufferView": 11,
      "componentType": 5126,
      "count": 24,
      "type": "VEC2"
    }
  ],
  "bufferViews": [
    {
      "buffer": 0,
      "byteOffset": 0,
      "byteLength": 72
    },
    {
      "buffer": 0,
      "byteOffset": 72,
      "byteLength": 288
    },
    {
      "buffer": 0,
      "byteOffset": 360,
      "byteLength": 288
    },
    {
      "buffer": 0,
      "byteOffset": 648,
      "byteLength": 192
    },
    {
      "buffer": 0,
      "byteOffset": 840,
      "byteLength": 72
    },
    {
      "buffer": 0,
      "byteOffset": 912,
      "byteLength": 288
    },
    {
      "buffer": 0,
      "byteOffset": 1200,
      "byteLength": 288
    },
    {
      "buffer": 0,
      "byteOffset": 1488,
      "byteLength": 192
    },
    {
      "buffer": 0,
      "byteOffset": 1680,
      "byteLength": 72
    },
    {
      "buffer": 0,
      "byteOffset": 1752,
      "byteLength": 288
    },
    {
      "buffer": 0,
      "byteOffset": 2040,
      "byteLength": 288
    },
    {
      "buffer": 0,
      "byteOffset": 2328,
      "byteLength": 192
    }
  ],
  "buffers": [
    {
      "uri": "little-bam.bin",
      "byteLength": 2520
    }
  ]
}